<svg width="20" height="20" viewBox="0 0 20 20" fill="none" xmlns="http://www.w3.org/2000/svg">
<path d="M15.8843 6.54499C15.7682 6.42883 15.6304 6.33668 15.4786 6.27382C15.3269 6.21095 15.1643 6.17859 15.0001 6.17859C14.8359 6.17859 14.6733 6.21095 14.5216 6.27382C14.3699 6.33668 14.232 6.42883 14.1159 6.54499L10.2943 10.3658C10.2161 10.4439 10.1102 10.4878 9.99969 10.4878C9.8892 10.4878 9.78324 10.4439 9.70511 10.3658L5.88427 6.54499C5.64989 6.31049 5.33195 6.17871 5.0004 6.17863C4.66885 6.17855 4.35085 6.31019 4.11636 6.54457C3.88186 6.77896 3.75008 7.0969 3.75 7.42844C3.74992 7.75999 3.88155 8.07799 4.11594 8.31249L7.93761 12.1342C8.20845 12.405 8.52999 12.6199 8.88388 12.7665C9.23776 12.9131 9.61706 12.9885 10.0001 12.9885C10.3832 12.9885 10.7624 12.9131 11.1163 12.7665C11.4702 12.6199 11.7918 12.405 12.0626 12.1342L15.8843 8.31249C16.1186 8.07808 16.2503 7.76019 16.2503 7.42874C16.2503 7.09728 16.1186 6.7794 15.8843 6.54499Z" fill="#C3C3C3"/>
</svg>
