<svg width="15" height="9" viewBox="0 0 15 9" fill="none" xmlns="http://www.w3.org/2000/svg">
<path d="M11.952 8.49627L14.4014 6.0469C14.7991 5.63011 15.0211 5.07613 15.0211 4.50002C15.0211 3.92391 14.7991 3.36993 14.4014 2.95315L11.952 0.503771C11.7762 0.327899 11.5378 0.229063 11.2891 0.229004C11.0405 0.228945 10.802 0.32767 10.6261 0.503459C10.4502 0.679247 10.3514 0.917701 10.3513 1.16636C10.3513 1.41502 10.45 1.65352 10.6258 1.8294L12.3633 3.56752L0.957031 3.5819C0.708391 3.5819 0.469934 3.68067 0.294119 3.85648C0.118303 4.0323 0.0195312 4.27076 0.0195312 4.5194C0.0195313 4.76804 0.118303 5.00649 0.294119 5.18231C0.469934 5.35812 0.708391 5.4569 0.957031 5.4569L12.3514 5.44252L10.6258 7.17065C10.455 7.34746 10.3605 7.58428 10.3627 7.83008C10.3648 8.07589 10.4634 8.31103 10.6372 8.48485C10.811 8.65867 11.0462 8.75727 11.292 8.7594C11.5378 8.76154 11.7752 8.66704 11.952 8.49627Z" fill="#0F0F0F"/>
</svg>
