<svg width="42" height="42" viewBox="0 0 42 42" fill="none" xmlns="http://www.w3.org/2000/svg">
<rect x="0.5" y="0.5" width="41" height="41" rx="7.5" fill="white"/>
<rect x="0.5" y="0.5" width="41" height="41" rx="7.5" stroke="#060606"/>
<g clip-path="url(#clip0_397_248)">
<path d="M11.9991 16.68C11.9991 22.41 19.5966 30 25.3191 30C26.5716 30 27.7416 29.5275 28.6041 28.665L29.3541 27.8025C30.2241 26.9325 30.2241 25.4625 29.3166 24.555C29.2941 24.5325 27.4866 23.145 27.4866 23.145C26.5866 22.29 25.1691 22.29 24.2766 23.145L23.1816 24.0225C20.7816 23.0025 19.0791 21.2925 17.9841 18.81L18.8541 17.715C19.7166 16.8225 19.7166 15.3975 18.8541 14.505C18.8541 14.505 17.4666 12.6975 17.4441 12.675C16.5366 11.7675 15.0666 11.7675 14.1591 12.675L13.3716 13.3575C12.4716 14.25 11.9991 15.42 11.9991 16.6725V16.68Z" fill="#0F0F0F"/>
</g>
<defs>
<clipPath id="clip0_397_248">
<rect width="18" height="18" fill="white" transform="matrix(-1 0 0 1 30 12)"/>
</clipPath>
</defs>
</svg>
