<svg width="25" height="25" viewBox="0 0 25 25" fill="none" xmlns="http://www.w3.org/2000/svg">
<path d="M22.8874 20.1006L4.32583 1.53902C3.5936 0.806793 2.4064 0.806793 1.67417 1.53902C0.941946 2.27125 0.941946 3.45844 1.67417 4.19067L20.2357 22.7522C20.968 23.4845 22.1551 23.4845 22.8874 22.7522C23.6196 22.02 23.6196 20.8328 22.8874 20.1006Z" fill="white"/>
<path d="M19.8874 1.32582L1.32583 19.8874C0.593597 20.6196 0.593597 21.8068 1.32583 22.539C2.05805 23.2712 3.24525 23.2712 3.97748 22.539L22.539 3.97747C23.2713 3.24524 23.2713 2.05805 22.539 1.32582C21.8068 0.59359 20.6196 0.593589 19.8874 1.32582Z" fill="white"/>
</svg>
