<svg width="30" height="31" viewBox="0 0 30 31" fill="none" xmlns="http://www.w3.org/2000/svg">
<g clip-path="url(#clip0_345_658)">
<path d="M30 13.625V23.625C30 27.4125 26.9125 30.5 23.125 30.5H6.875C3.0875 30.5 0 27.4125 0 23.625V11.125C0 7.3375 3.0875 4.25 6.875 4.25H16.875C17.9125 4.25 18.75 5.0875 18.75 6.125C18.75 7.1625 17.9125 8 16.875 8H6.875C5.675 8 4.6375 8.675 4.1125 9.6625L12.7875 18.3375C13.975 19.525 16.025 19.525 17.2125 18.3375C17.2375 18.3125 20.65 15.3375 20.65 15.3375C21.425 14.6625 22.6125 14.7375 23.3 15.525C23.975 16.3 23.9 17.4875 23.1125 18.175L19.8125 21.05C18.525 22.3125 16.8125 23.0125 15 23.0125C13.1875 23.0125 11.4375 22.3 10.1375 21L3.75 14.6V23.625C3.75 25.35 5.15 26.75 6.875 26.75H23.125C24.85 26.75 26.25 25.35 26.25 23.625V13.625C26.25 12.5875 27.0875 11.75 28.125 11.75C29.1625 11.75 30 12.5875 30 13.625Z" fill="white"/>
<path d="M30 4.875C30 7.2875 28.0375 9.25 25.625 9.25C23.2125 9.25 21.25 7.2875 21.25 4.875C21.25 2.4625 23.2125 0.5 25.625 0.5C28.0375 0.5 30 2.4625 30 4.875Z" fill="#20D703"/>
</g>
<defs>
<clipPath id="clip0_345_658">
<rect width="30" height="30" fill="white" transform="translate(0 0.5)"/>
</clipPath>
</defs>
</svg>
