<svg width="227" height="45" viewBox="0 0 227 45" fill="none" xmlns="http://www.w3.org/2000/svg">
<path d="M19.9994 43C31.0454 43 39.9994 34.046 39.9994 23V9C39.9994 7.4087 39.3673 5.88258 38.2421 4.75736C37.1169 3.63214 35.5907 3 33.9994 3L20.9994 3V11.774C20.9994 13.776 21.1214 15.85 22.1714 17.554C22.9231 18.7752 23.9287 19.8204 25.1199 20.6188C26.3112 21.4171 27.6602 21.9499 29.0754 22.181L29.4584 22.243C29.6163 22.297 29.7534 22.399 29.8505 22.5347C29.9475 22.6704 29.9997 22.8331 29.9997 23C29.9997 23.1669 29.9475 23.3296 29.8505 23.4653C29.7534 23.601 29.6163 23.703 29.4584 23.757L29.0754 23.819C27.0076 24.1568 25.0981 25.1356 23.6166 26.6171C22.135 28.0987 21.1562 30.0082 20.8184 32.076L20.7564 32.459C20.7025 32.6169 20.6005 32.754 20.4647 32.851C20.329 32.9481 20.1663 33.0003 19.9994 33.0003C19.8326 33.0003 19.6699 32.9481 19.5341 32.851C19.3984 32.754 19.2964 32.6169 19.2424 32.459L19.1804 32.076C18.9493 30.6607 18.4165 29.3118 17.6182 28.1205C16.8198 26.9293 15.7746 25.9237 14.5534 25.172C12.8494 24.122 10.7754 24 8.77344 24H0.0234375C0.546438 34.581 9.28944 43 19.9994 43Z" fill="#0F0F0F"/>
<path d="M0 22H8.774C10.776 22 12.85 21.878 14.554 20.828C15.886 20.0073 17.0073 18.886 17.828 17.554C18.878 15.85 19 13.776 19 11.774V3H6C4.4087 3 2.88258 3.63214 1.75736 4.75736C0.632141 5.88258 0 7.4087 0 9L0 22ZM46.455 5C46.455 5.53043 46.2443 6.03914 45.8692 6.41421C45.4941 6.78929 44.9854 7 44.455 7C43.9246 7 43.4159 6.78929 43.0408 6.41421C42.6657 6.03914 42.455 5.53043 42.455 5C42.455 4.46957 42.6657 3.96086 43.0408 3.58579C43.4159 3.21071 43.9246 3 44.455 3C44.9854 3 45.4941 3.21071 45.8692 3.58579C46.2443 3.96086 46.455 4.46957 46.455 5Z" fill="#0F0F0F"/>
<path d="M71.76 11.94V16.05H63.99V20.31H70.86V24.27H63.99V28.89H71.76V33H58.86V11.94H71.76ZM74.0705 24.63C74.0705 19.35 77.5505 16.02 82.4705 16.02C86.6705 16.02 89.6405 18.33 90.5105 22.32H85.0505C84.6305 21.15 83.7905 20.4 82.3805 20.4C80.5505 20.4 79.2905 21.84 79.2905 24.63C79.2905 27.42 80.5505 28.86 82.3805 28.86C83.7905 28.86 84.6005 28.17 85.0505 26.94H90.5105C89.6405 30.81 86.6705 33.24 82.4705 33.24C77.5505 33.24 74.0705 29.94 74.0705 24.63ZM109.635 24.63C109.635 29.94 105.795 33.24 100.875 33.24C95.9545 33.24 92.2345 29.94 92.2345 24.63C92.2345 19.32 96.0445 16.02 100.935 16.02C105.855 16.02 109.635 19.32 109.635 24.63ZM97.4545 24.63C97.4545 27.45 99.0145 28.8 100.875 28.8C102.705 28.8 104.415 27.45 104.415 24.63C104.415 21.78 102.735 20.46 100.935 20.46C99.0745 20.46 97.4545 21.78 97.4545 24.63ZM112.356 11.94H117.486V29.04H124.206V33H112.356V11.94ZM126.653 33V16.26H131.783V33H126.653ZM129.233 14.52C127.403 14.52 126.173 13.29 126.173 11.76C126.173 10.2 127.403 8.97 129.233 8.97C131.033 8.97 132.263 10.2 132.263 11.76C132.263 13.29 131.033 14.52 129.233 14.52ZM134.481 24.6C134.481 19.32 137.751 16.02 141.861 16.02C144.321 16.02 146.121 17.13 147.021 18.63V16.26H152.151V32.97C152.151 37.44 149.571 41.25 143.781 41.25C138.801 41.25 135.561 38.73 135.111 34.74H140.181C140.511 36 141.771 36.81 143.541 36.81C145.491 36.81 147.021 35.79 147.021 32.97V30.6C146.091 32.07 144.321 33.24 141.861 33.24C137.751 33.24 134.481 29.88 134.481 24.6ZM147.021 24.63C147.021 21.96 145.311 20.49 143.361 20.49C141.441 20.49 139.701 21.93 139.701 24.6C139.701 27.27 141.441 28.77 143.361 28.77C145.311 28.77 147.021 27.3 147.021 24.63ZM167.412 33V23.91C167.412 21.63 166.152 20.37 164.202 20.37C162.252 20.37 160.992 21.63 160.992 23.91V33H155.862V16.26H160.992V18.48C162.012 17.07 163.812 16.08 166.062 16.08C169.932 16.08 172.512 18.72 172.512 23.22V33H167.412ZM192.607 16.26V33H187.477V30.72C186.457 32.16 184.657 33.18 182.407 33.18C178.537 33.18 175.927 30.51 175.927 26.04V16.26H181.027V25.35C181.027 27.63 182.317 28.89 184.237 28.89C186.217 28.89 187.477 27.63 187.477 25.35V16.26H192.607ZM219.362 33V23.91C219.362 21.72 218.102 20.52 216.152 20.52C214.202 20.52 212.942 21.72 212.942 23.91V33H207.842V23.91C207.842 21.72 206.582 20.52 204.632 20.52C202.682 20.52 201.422 21.72 201.422 23.91V33H196.292V16.26H201.422V18.36C202.412 17.01 204.122 16.08 206.312 16.08C208.832 16.08 210.872 17.19 212.012 19.2C213.122 17.43 215.222 16.08 217.652 16.08C221.792 16.08 224.462 18.72 224.462 23.22V33H219.362Z" fill="#0F0F0F"/>
</svg>
