<svg width="227" height="45" viewBox="0 0 227 45" fill="none" xmlns="http://www.w3.org/2000/svg">
<path d="M19.9994 43C31.0454 43 39.9994 34.046 39.9994 23V9C39.9994 7.4087 39.3673 5.88258 38.2421 4.75736C37.1169 3.63214 35.5907 3 33.9994 3L20.9994 3V11.774C20.9994 13.776 21.1214 15.85 22.1714 17.554C22.9231 18.7752 23.9287 19.8204 25.1199 20.6188C26.3112 21.4171 27.6602 21.9499 29.0754 22.181L29.4584 22.243C29.6163 22.297 29.7534 22.399 29.8505 22.5347C29.9475 22.6704 29.9997 22.8331 29.9997 23C29.9997 23.1669 29.9475 23.3296 29.8505 23.4653C29.7534 23.601 29.6163 23.703 29.4584 23.757L29.0754 23.819C27.0076 24.1568 25.0981 25.1356 23.6166 26.6171C22.135 28.0987 21.1562 30.0082 20.8184 32.076L20.7564 32.459C20.7025 32.6169 20.6005 32.754 20.4647 32.851C20.329 32.9481 20.1663 33.0003 19.9994 33.0003C19.8326 33.0003 19.6699 32.9481 19.5341 32.851C19.3984 32.754 19.2964 32.6169 19.2424 32.459L19.1804 32.076C18.9493 30.6607 18.4165 29.3118 17.6182 28.1205C16.8198 26.9293 15.7746 25.9237 14.5534 25.172C12.8494 24.122 10.7754 24 8.77344 24H0.0234375C0.546438 34.581 9.28944 43 19.9994 43Z" fill="white"/>
<path d="M0 22H8.774C10.776 22 12.85 21.878 14.554 20.828C15.886 20.0073 17.0073 18.886 17.828 17.554C18.878 15.85 19 13.776 19 11.774V3H6C4.4087 3 2.88258 3.63214 1.75736 4.75736C0.632141 5.88258 0 7.4087 0 9L0 22ZM46.455 5C46.455 5.53043 46.2443 6.03914 45.8692 6.41421C45.4941 6.78929 44.9854 7 44.455 7C43.9246 7 43.4159 6.78929 43.0408 6.41421C42.6657 6.03914 42.455 5.53043 42.455 5C42.455 4.46957 42.6657 3.96086 43.0408 3.58579C43.4159 3.21071 43.9246 3 44.455 3C44.9854 3 45.4941 3.21071 45.8692 3.58579C46.2443 3.96086 46.455 4.46957 46.455 5Z" fill="white"/>
<path d="M63.99 16.05V20.31H70.86V24.27H63.99V28.89H71.76V33H58.86V11.94H71.76V16.05H63.99ZM74.0705 24.63C74.0705 22.89 74.4205 21.37 75.1205 20.07C75.8405 18.77 76.8305 17.77 78.0905 17.07C79.3705 16.37 80.8305 16.02 82.4705 16.02C84.5705 16.02 86.3205 16.57 87.7205 17.67C89.1405 18.77 90.0705 20.32 90.5105 22.32H85.0505C84.5905 21.04 83.7005 20.4 82.3805 20.4C81.4405 20.4 80.6905 20.77 80.1305 21.51C79.5705 22.23 79.2905 23.27 79.2905 24.63C79.2905 25.99 79.5705 27.04 80.1305 27.78C80.6905 28.5 81.4405 28.86 82.3805 28.86C83.7005 28.86 84.5905 28.22 85.0505 26.94H90.5105C90.0705 28.9 89.1405 30.44 87.7205 31.56C86.3005 32.68 84.5505 33.24 82.4705 33.24C80.8305 33.24 79.3705 32.89 78.0905 32.19C76.8305 31.49 75.8405 30.49 75.1205 29.19C74.4205 27.89 74.0705 26.37 74.0705 24.63ZM100.875 33.24C99.2345 33.24 97.7545 32.89 96.4345 32.19C95.1345 31.49 94.1045 30.49 93.3445 29.19C92.6045 27.89 92.2345 26.37 92.2345 24.63C92.2345 22.91 92.6145 21.4 93.3745 20.1C94.1345 18.78 95.1745 17.77 96.4945 17.07C97.8145 16.37 99.2945 16.02 100.935 16.02C102.575 16.02 104.055 16.37 105.375 17.07C106.695 17.77 107.735 18.78 108.495 20.1C109.255 21.4 109.635 22.91 109.635 24.63C109.635 26.35 109.245 27.87 108.465 29.19C107.705 30.49 106.655 31.49 105.315 32.19C103.995 32.89 102.515 33.24 100.875 33.24ZM100.875 28.8C101.855 28.8 102.685 28.44 103.365 27.72C104.065 27 104.415 25.97 104.415 24.63C104.415 23.29 104.075 22.26 103.395 21.54C102.735 20.82 101.915 20.46 100.935 20.46C99.9345 20.46 99.1045 20.82 98.4445 21.54C97.7845 22.24 97.4545 23.27 97.4545 24.63C97.4545 25.97 97.7745 27 98.4145 27.72C99.0745 28.44 99.8945 28.8 100.875 28.8ZM117.486 29.04H124.206V33H112.356V11.94H117.486V29.04ZM129.233 14.52C128.333 14.52 127.593 14.26 127.013 13.74C126.453 13.2 126.173 12.54 126.173 11.76C126.173 10.96 126.453 10.3 127.013 9.78C127.593 9.24 128.333 8.97 129.233 8.97C130.113 8.97 130.833 9.24 131.393 9.78C131.973 10.3 132.263 10.96 132.263 11.76C132.263 12.54 131.973 13.2 131.393 13.74C130.833 14.26 130.113 14.52 129.233 14.52ZM131.783 16.26V33H126.653V16.26H131.783ZM141.861 16.02C143.041 16.02 144.071 16.26 144.951 16.74C145.851 17.22 146.541 17.85 147.021 18.63V16.26H152.151V32.97C152.151 34.51 151.841 35.9 151.221 37.14C150.621 38.4 149.691 39.4 148.431 40.14C147.191 40.88 145.641 41.25 143.781 41.25C141.301 41.25 139.291 40.66 137.751 39.48C136.211 38.32 135.331 36.74 135.111 34.74H140.181C140.341 35.38 140.721 35.88 141.321 36.24C141.921 36.62 142.661 36.81 143.541 36.81C144.601 36.81 145.441 36.5 146.061 35.88C146.701 35.28 147.021 34.31 147.021 32.97V30.6C146.521 31.38 145.831 32.02 144.951 32.52C144.071 33 143.041 33.24 141.861 33.24C140.481 33.24 139.231 32.89 138.111 32.19C136.991 31.47 136.101 30.46 135.441 29.16C134.801 27.84 134.481 26.32 134.481 24.6C134.481 22.88 134.801 21.37 135.441 20.07C136.101 18.77 136.991 17.77 138.111 17.07C139.231 16.37 140.481 16.02 141.861 16.02ZM147.021 24.63C147.021 23.35 146.661 22.34 145.941 21.6C145.241 20.86 144.381 20.49 143.361 20.49C142.341 20.49 141.471 20.86 140.751 21.6C140.051 22.32 139.701 23.32 139.701 24.6C139.701 25.88 140.051 26.9 140.751 27.66C141.471 28.4 142.341 28.77 143.361 28.77C144.381 28.77 145.241 28.4 145.941 27.66C146.661 26.92 147.021 25.91 147.021 24.63ZM166.062 16.08C168.022 16.08 169.582 16.72 170.742 18C171.922 19.26 172.512 21 172.512 23.22V33H167.412V23.91C167.412 22.79 167.122 21.92 166.542 21.3C165.962 20.68 165.182 20.37 164.202 20.37C163.222 20.37 162.442 20.68 161.862 21.3C161.282 21.92 160.992 22.79 160.992 23.91V33H155.862V16.26H160.992V18.48C161.512 17.74 162.212 17.16 163.092 16.74C163.972 16.3 164.962 16.08 166.062 16.08ZM192.607 16.26V33H187.477V30.72C186.957 31.46 186.247 32.06 185.347 32.52C184.467 32.96 183.487 33.18 182.407 33.18C181.127 33.18 179.997 32.9 179.017 32.34C178.037 31.76 177.277 30.93 176.737 29.85C176.197 28.77 175.927 27.5 175.927 26.04V16.26H181.027V25.35C181.027 26.47 181.317 27.34 181.897 27.96C182.477 28.58 183.257 28.89 184.237 28.89C185.237 28.89 186.027 28.58 186.607 27.96C187.187 27.34 187.477 26.47 187.477 25.35V16.26H192.607ZM217.652 16.08C219.732 16.08 221.382 16.71 222.602 17.97C223.842 19.23 224.462 20.98 224.462 23.22V33H219.362V23.91C219.362 22.83 219.072 22 218.492 21.42C217.932 20.82 217.152 20.52 216.152 20.52C215.152 20.52 214.362 20.82 213.782 21.42C213.222 22 212.942 22.83 212.942 23.91V33H207.842V23.91C207.842 22.83 207.552 22 206.972 21.42C206.412 20.82 205.632 20.52 204.632 20.52C203.632 20.52 202.842 20.82 202.262 21.42C201.702 22 201.422 22.83 201.422 23.91V33H196.292V16.26H201.422V18.36C201.942 17.66 202.622 17.11 203.462 16.71C204.302 16.29 205.252 16.08 206.312 16.08C207.572 16.08 208.692 16.35 209.672 16.89C210.672 17.43 211.452 18.2 212.012 19.2C212.592 18.28 213.382 17.53 214.382 16.95C215.382 16.37 216.472 16.08 217.652 16.08Z" fill="white"/>
</svg>
