<svg width="122" height="30" viewBox="0 0 122 30" fill="none" xmlns="http://www.w3.org/2000/svg">
<path d="M13.4919 28C20.9524 28 27 21.9561 27 14.5V5.05C27 3.97587 26.573 2.94574 25.8131 2.18622C25.0531 1.4267 24.0223 1 22.9476 1L14.1673 1V6.92245C14.1673 8.2738 14.2497 9.67375 14.9589 10.8239C15.4666 11.6483 16.1457 12.3538 16.9503 12.8927C17.7549 13.4316 18.666 13.7912 19.6219 13.9472L19.8806 13.989C19.9872 14.0255 20.0798 14.0943 20.1453 14.1859C20.2109 14.2775 20.2461 14.3874 20.2461 14.5C20.2461 14.6126 20.2109 14.7225 20.1453 14.8141C20.0798 14.9057 19.9872 14.9745 19.8806 15.011L19.6219 15.0528C18.2252 15.2808 16.9356 15.9415 15.9349 16.9416C14.9343 17.9416 14.2732 19.2305 14.0451 20.6263L14.0032 20.8848C13.9667 20.9914 13.8978 21.0839 13.8062 21.1494C13.7145 21.2149 13.6046 21.2502 13.4919 21.2502C13.3792 21.2502 13.2693 21.2149 13.1776 21.1494C13.086 21.0839 13.0171 20.9914 12.9806 20.8848L12.9387 20.6263C12.7826 19.671 12.4228 18.7604 11.8836 17.9564C11.3444 17.1523 10.6384 16.4735 9.81364 15.9661C8.66275 15.2574 7.26196 15.175 5.9098 15.175H0C0.353237 22.3172 6.2583 28 13.4919 28Z" fill="white"/>
<path d="M0 14H6.04387C7.42293 14 8.85158 13.9165 10.0254 13.1981C10.9429 12.6366 11.7153 11.8694 12.2806 10.958C13.0039 9.79211 13.0879 8.37305 13.0879 7.00326V1H4.13303C3.03688 1 1.98563 1.43252 1.21054 2.2024C0.435443 2.97229 0 4.01648 0 5.10526L0 14ZM32 2.36842C32 2.73135 31.8549 3.07941 31.5965 3.33604C31.3381 3.59267 30.9877 3.73684 30.6223 3.73684C30.2569 3.73684 29.9065 3.59267 29.6482 3.33604C29.3898 3.07941 29.2446 2.73135 29.2446 2.36842C29.2446 2.00549 29.3898 1.65743 29.6482 1.4008C29.9065 1.14417 30.2569 1 30.6223 1C30.9877 1 31.3381 1.14417 31.5965 1.4008C31.8549 1.65743 32 2.00549 32 2.36842Z" fill="white"/>
<path d="M43.66 14.24H45.52C46.88 14.24 47.46 13.56 47.46 12.48C47.46 11.4 46.88 10.72 45.52 10.72H43.66V14.24ZM50.94 12.48C50.94 14.8 49.36 16.96 45.78 16.96H43.66V22H40.24V7.96H45.78C49.22 7.96 50.94 9.9 50.94 12.48ZM56.1405 16.82V22H52.7205V10.84H56.1405V12.7C56.9205 11.52 58.1405 10.72 59.6405 10.72V14.34H58.7005C57.0805 14.34 56.1405 14.9 56.1405 16.82ZM72.1952 16.42C72.1952 19.96 69.6352 22.16 66.3552 22.16C63.0752 22.16 60.5952 19.96 60.5952 16.42C60.5952 12.88 63.1352 10.68 66.3952 10.68C69.6752 10.68 72.1952 12.88 72.1952 16.42ZM64.0752 16.42C64.0752 18.3 65.1152 19.2 66.3552 19.2C67.5752 19.2 68.7152 18.3 68.7152 16.42C68.7152 14.52 67.5952 13.64 66.3952 13.64C65.1552 13.64 64.0752 14.52 64.0752 16.42ZM76.8295 22L73.2695 7.96H76.9295L78.9495 18.18L81.4495 7.96H85.2095L87.6095 18.18L89.6495 7.96H93.3295L89.6695 22H85.5295L83.2895 12.76L80.9695 22H76.8295ZM98.4647 14.24H100.325C101.685 14.24 102.265 13.56 102.265 12.48C102.265 11.4 101.685 10.72 100.325 10.72H98.4647V14.24ZM105.745 12.48C105.745 14.8 104.165 16.96 100.585 16.96H98.4647V22H95.0447V7.96H100.585C104.025 7.96 105.745 9.9 105.745 12.48ZM106.945 14.96C106.945 10.76 109.865 7.8 114.005 7.8C117.345 7.8 119.865 9.68 120.665 12.72H116.905C116.325 11.52 115.265 10.92 113.965 10.92C111.865 10.92 110.425 12.48 110.425 14.96C110.425 17.44 111.865 19 113.965 19C115.265 19 116.325 18.4 116.905 17.2H120.665C119.865 20.24 117.345 22.1 114.005 22.1C109.865 22.1 106.945 19.16 106.945 14.96Z" fill="white"/>
</svg>
