<svg width="18" height="19" viewBox="0 0 18 19" fill="none" xmlns="http://www.w3.org/2000/svg">
<g clip-path="url(#clip0_345_655)">
<path d="M-0.000934601 5.18001C-0.000934601 10.91 7.59657 18.5 13.3191 18.5C14.5716 18.5 15.7416 18.0275 16.6041 17.165L17.3541 16.3025C18.2241 15.4325 18.2241 13.9625 17.3166 13.055C17.2941 13.0325 15.4866 11.645 15.4866 11.645C14.5866 10.79 13.1691 10.79 12.2766 11.645L11.1816 12.5225C8.78157 11.5025 7.07907 9.79251 5.98407 7.31001L6.85407 6.21501C7.71657 5.32251 7.71657 3.89751 6.85407 3.00501C6.85407 3.00501 5.46657 1.19751 5.44407 1.17501C4.53657 0.26751 3.06656 0.26751 2.15906 1.17501L1.37156 1.85751C0.471565 2.75001 -0.000934601 3.92001 -0.000934601 5.17251V5.18001Z" fill="white"/>
</g>
<defs>
<clipPath id="clip0_345_655">
<rect width="18" height="18" fill="white" transform="matrix(-1 0 0 1 18 0.5)"/>
</clipPath>
</defs>
</svg>
