<svg width="37" height="37" viewBox="0 0 37 37" fill="none" xmlns="http://www.w3.org/2000/svg">
<circle cx="18.5" cy="18.5" r="18.5" fill="white"/>
<g clip-path="url(#clip0_360_746)">
<path d="M24.4748 18.1783L24.4748 14.7144C24.4613 14.1384 24.2265 13.5898 23.8191 13.1824C23.4118 12.775 22.8631 12.5402 22.2872 12.5268L18.8232 12.5268C18.5746 12.5267 18.3361 12.6254 18.1602 12.8012C17.9843 12.977 17.8855 13.2155 17.8854 13.4641C17.8854 13.7128 17.9841 13.9513 18.1599 14.1271C18.3357 14.303 18.5741 14.4019 18.8228 14.4019L21.2804 14.4024L13.2252 22.478C13.0494 22.6538 12.9506 22.8922 12.9506 23.1409C12.9506 23.3895 13.0494 23.628 13.2252 23.8038C13.401 23.9796 13.6394 24.0784 13.8881 24.0784C14.1367 24.0784 14.3752 23.9796 14.551 23.8038L22.5979 15.7366L22.5996 18.1787C22.6039 18.4245 22.7045 18.6588 22.8799 18.8311C23.0552 19.0034 23.2912 19.1 23.537 19.1C23.7828 19.1 24.0188 19.0034 24.1941 18.8311C24.3695 18.6588 24.4705 18.4241 24.4748 18.1783Z" fill="#0F0F0F"/>
</g>
<defs>
<clipPath id="clip0_360_746">
<rect width="15" height="15" fill="white" transform="translate(7.89453 18.5) rotate(-45)"/>
</clipPath>
</defs>
</svg>
