<svg width="15" height="9" viewBox="0 0 15 9" fill="none" xmlns="http://www.w3.org/2000/svg">
<path d="M3.04797 8.49627L0.598591 6.0469C0.200857 5.63011 -0.0210533 5.07613 -0.0210533 4.50002C-0.0210533 3.92391 0.200857 3.36993 0.598591 2.95315L3.04797 0.503771C3.22376 0.327899 3.46221 0.229063 3.71087 0.229004C3.95953 0.228945 4.19803 0.32767 4.37391 0.503459C4.54978 0.679247 4.64861 0.917701 4.64867 1.16636C4.64873 1.41502 4.55001 1.65352 4.37422 1.8294L2.63672 3.56752L14.043 3.5819C14.2916 3.5819 14.5301 3.68067 14.7059 3.85648C14.8817 4.0323 14.9805 4.27076 14.9805 4.5194C14.9805 4.76804 14.8817 5.00649 14.7059 5.18231C14.5301 5.35812 14.2916 5.4569 14.043 5.4569L2.64859 5.44252L4.37422 7.17065C4.54499 7.34746 4.63949 7.58428 4.63735 7.83008C4.63521 8.07589 4.53662 8.31103 4.3628 8.48485C4.18898 8.65867 3.95384 8.75727 3.70803 8.7594C3.46222 8.76154 3.22478 8.66704 3.04797 8.49627Z" fill="white"/>
</svg>
